<svg width="56" height="60" viewBox="0 0 56 60" fill="none" xmlns="http://www.w3.org/2000/svg">
<g id="Group 8">
<path id="Vector" d="M0 3.68196V56.3152C0.000352614 56.4294 0.034411 56.5409 0.0979044 56.6358C0.161398 56.7308 0.2515 56.8048 0.356912 56.8487C0.462324 56.8926 0.578354 56.9044 0.690452 56.8827C0.802549 56.8609 0.905725 56.8065 0.98704 56.7263L28.3925 29.9999L0.98704 3.27081C0.905725 3.19064 0.802549 3.13626 0.690452 3.11449C0.578354 3.09272 0.462324 3.10453 0.356912 3.14844C0.2515 3.19235 0.161398 3.2664 0.0979044 3.36131C0.034411 3.45623 0.000352614 3.56777 0 3.68196Z" fill="#3BCCFF"/>
<path id="Vector_2" d="M39.8834 19.018L5.52048 0.0861125L5.49905 0.074059C4.9071 -0.247365 4.34461 0.553517 4.82942 1.01958L31.7661 26.7764L39.8834 19.018Z" fill="#48FF48"/>
<path id="Vector_3" d="M4.83209 58.9804C4.3446 59.4464 4.90709 60.2473 5.50172 59.9259L5.52315 59.9138L39.8834 40.9819L31.7661 33.2209L4.83209 58.9804Z" fill="#FF3333"/>
<path id="Vector_4" d="M53.7556 26.6518L44.1597 21.3671L35.1371 30L44.1597 38.6289L53.7556 33.3482C56.3658 31.9058 56.3658 28.0942 53.7556 26.6518Z" fill="#FFD400"/>
</g>
</svg>
